<svg width="1024" height="1024" viewBox="0 0 1024 1024" xmlns="http://www.w3.org/2000/svg">
  <defs>
    <linearGradient id="bgGrad" x1="0%" y1="0%" x2="100%" y2="100%">
      <stop offset="0%" style="stop-color:#4CAF50;stop-opacity:1" />
      <stop offset="100%" style="stop-color:#2196F3;stop-opacity:1" />
    </linearGradient>
    <linearGradient id="cartGrad" x1="0%" y1="0%" x2="100%" y2="100%">
      <stop offset="0%" style="stop-color:#66BB6A;stop-opacity:1" />
      <stop offset="100%" style="stop-color:#42A5F5;stop-opacity:1" />
    </linearGradient>
  </defs>
  
  <!-- Rounded square background -->
  <rect x="64" y="64" width="896" height="896" rx="180" fill="url(#bgGrad)" />
  
  <!-- Shopping Cart -->
  <g transform="translate(512, 512)">
    <!-- Cart basket -->
    <path d="M -280 80 L -280 -120 L 280 -120 L 280 80 L 220 80 L 180 200 L -180 200 L -220 80 Z" 
          fill="white" opacity="0.95" stroke="none" />
    <!-- Cart handle -->
    <path d="M -280 -120 L -340 -180 L -340 -240 L -280 -240 L -280 -180 Z" 
          fill="white" opacity="0.95" stroke="none" />
    <!-- Cart wheels -->
    <circle cx="-160" cy="280" r="50" fill="white" opacity="0.9" />
    <circle cx="-160" cy="280" r="30" fill="url(#cartGrad)" />
    <circle cx="160" cy="280" r="50" fill="white" opacity="0.9" />
    <circle cx="160" cy="280" r="30" fill="url(#cartGrad)" />
  </g>
  
  <!-- AI Brain inside cart -->
  <g transform="translate(512, 400)">
    <!-- Brain shape -->
    <path d="M -100 -60 Q -120 -90 -100 -110 Q -80 -130 -40 -110 Q 0 -90 20 -70 Q 40 -50 20 -30 Q 0 -10 -40 0 Q -80 10 -100 -60 Z" 
          fill="url(#cartGrad)" opacity="0.95" stroke="white" stroke-width="4" />
    <!-- Neural network nodes -->
    <circle cx="-60" cy="-70" r="14" fill="white" />
    <circle cx="0" cy="-80" r="14" fill="white" />
    <circle cx="40" cy="-60" r="14" fill="white" />
    <circle cx="-40" cy="-30" r="14" fill="white" />
    <circle cx="20" cy="-20" r="14" fill="white" />
    <!-- Neural connections -->
    <line x1="-60" y1="-70" x2="0" y2="-80" stroke="white" stroke-width="4" opacity="0.8" />
    <line x1="0" y1="-80" x2="40" y2="-60" stroke="white" stroke-width="4" opacity="0.8" />
    <line x1="-60" y1="-70" x2="-40" y2="-30" stroke="white" stroke-width="4" opacity="0.8" />
    <line x1="40" y1="-60" x2="20" y2="-20" stroke="white" stroke-width="4" opacity="0.8" />
  </g>
  
  <!-- Health plus symbol -->
  <g transform="translate(512, 300)">
    <rect x="-20" y="-100" width="40" height="20" rx="8" fill="white" opacity="0.95" />
    <rect x="-10" y="-110" width="20" height="40" rx="8" fill="white" opacity="0.95" />
  </g>
</svg>
